<?xml version="1.0" encoding="UTF-8" standalone="no"?>
<svg xmlns:dc="http://purl.org/dc/elements/1.1/" xmlns:cc="http://creativecommons.org/ns#" xmlns:rdf="http://www.w3.org/1999/02/22-rdf-syntax-ns#" xmlns:svg="http://www.w3.org/2000/svg" xmlns="http://www.w3.org/2000/svg" version="1.1" width="312.25" height="532.75" id="svg2">

  <defs><style type="text/css"><![CDATA[path.line {fill:#f9f9f9;stroke:#f8f8f8;stroke-width:3;stroke-linecap:round}
  rect.whiteFill{fill:#ffffff;fill-opacity:1;stroke:none}
  .grayFill{fill:#f5f5f5}]]></style></defs>  
  
  <path d="m 110.29632,531.51129 7.2085,-7.2085 c 0.66024,-0.66024 0.66024,-1.7423 0,-2.4026 l -0.60159,-0.60158 c -0.65948,-0.66024 -1.7416,-0.66024 -2.4018,0 l -5.5015,5.5 -5.5008,-5.5008 c -0.66024,-0.66024 -1.7423,-0.66024 -2.4018,0 l -0.60158,0.60159 c -0.661,0.66024 -0.661,1.7423 0,2.4026 l 7.2092,7.2085 c 0.35418,0.35494 0.82943,0.51285 1.2957,0.48653 0.46547,0.0271 0.94072,-0.13084 1.2956,-0.48578 z" id="down-arrow" style="fill:#b3b3b3" />
  <path d="m 101.58187,132 c -0.39172,0 -0.78373,-0.17738 -1.09001,-0.53417 -0.633078,-0.73878 -0.658328,-1.96781 -0.0566,-2.74506 l 3.5394,-4.56819 -3.53579,-4.53652 c -0.603958,-0.77453 -0.581768,-2.00356 0.0497,-2.74507 0.63169,-0.7415 1.63292,-0.71393 2.23688,0.0609 l 4.57892,5.87382 c 0.5837,0.74899 0.58481,1.92866 0.004,2.68004 l -4.57864,5.91059 C 102.41776,131.79709 102.00079,132 101.58187,132 z" id="right-arrow" style="fill:#bbbbbb" />
  <rect width="32" height="32" rx="3" ry="3" x="100" y="0" id="home-8" style="fill:none" />
  <rect width="29.799" height="29.799" rx="3.5504999" ry="3.6570001" x="101.0141" y="1.0099487" id="home-7" style="fill:none;stroke:#ffffff;stroke-width:1.20109999;stroke-miterlimit:4;stroke-dasharray:none" />
  <path d="m 115.42049,2.51063 14.05806,11.49525 -26.94617,0.28596 z" id="home-6" class="grayFill" />
  <rect width="3.5355" height="8.1899004" x="106.5272" y="3.8099976" id="home-4" class="grayFill" />
  <rect width="3.3587999" height="13.646" x="120.9493" y="13.659973" id="home-3" class="grayFill" />
  <rect width="9.4361" height="13.115" x="107.5361" y="14.019958" id="home-2" class="grayFill" />
  <rect width="7.513" height="4.9320002" x="115.0273" y="13.889954" id="home-1" class="grayFill" />
  <path d="m 302.106,67.267 c -19.929,3.19 -19.788,3.04 -19.788,3.04 l 13.832,12.293 -15,14 22.875,-4.5" id="mathdvd" style="fill:none;stroke:#1a6b86;stroke-width:2.29999995;stroke-linecap:round;stroke-linejoin:miter;stroke-miterlimit:4;stroke-dasharray:none" />
  <rect width="12.25" height="13" x="300" y="19" id="greysq" style="fill:#ababab" />
  <path d="m 115.9581,314.03001 c 1.346,-2.3604 1.0176,-5.4139 -0.99444,-7.4267 -2.4144,-2.4136 -6.3259,-2.4129 -8.7395,0 -2.4136,2.4129 -2.4136,6.3259 0,8.7387 1.9827,1.9835 4.9776,2.3335 7.3218,1.0569 l 3.4782,3.479 2.3913,-2.3928 -3.4574,-3.4551 z m -2.3951,-0.0902 c -1.6397,1.6397 -4.2977,1.6397 -5.9366,0 -1.6397,-1.6381 -1.6397,-4.2961 0,-5.935 1.6389,-1.6397 4.2969,-1.6397 5.9366,0 1.6389,1.6389 1.6389,4.2969 0,5.935 z" id="search-logo-2" class="grayFill" />
  <path d="m 126.1421,322.88001 -4.4518,-4.4518 c -0.36308,-0.36385 -0.95666,-0.36385 -1.319,0 l -2.4738,2.473 c -0.36232,0.36232 -0.36232,0.95667 0,1.319 l 4.4518,4.4511 c 0.36308,0.36386 0.95589,0.36386 1.319,0 l 2.4738,-2.4722 c 0.36231,-0.36462 0.36231,-0.95666 0,-1.319 z" id="search-logo-1" style="fill:#f5f5f5" />
  <path d="m 36.432501,312.99984 a 17.43234,17.43234 0 0 1 -34.8646805,0 17.43234,17.43234 0 1 1 34.8646805,0 z" id="sqclogo-circle" style="fill:none;stroke:#f5f5f5;stroke-width:3.1356411;stroke-miterlimit:4;stroke-dasharray:none" />
  <rect width="16.24" height="16.24" rx="3.3975999" ry="3.0820999" x="10.963883" y="305.09497" id="sqclogo-sq" style="fill:none;stroke:#f5f5f5;stroke-width:3.76029992;stroke-miterlimit:4;stroke-dasharray:none" />
  <path d="m 10.296323,421.29133 7.2085,7.2085 c 0.66024,0.66024 0.66024,1.7423 0,2.4026 l -0.60159,0.60159 c -0.65948,0.66024 -1.7416,0.66024 -2.4018,0 l -5.5015005,-5.5 -5.5008,5.5008 c -0.66024,0.66024 -1.7423,0.66024 -2.4018,0 l -0.60159,-0.60159 c -0.66099,-0.66024 -0.66099,-1.7423 0,-2.4026 l 7.2093,-7.2085 c 0.35418,-0.35493 0.82943,-0.51285 1.2957,-0.48653 0.46548,-0.0271 0.94073,0.13084 1.2957005,0.48578 z" id="up-arrow" style="fill:#b3b3b3" />
  <path d="m 10.296323,421.29133 7.2085,7.2085 c 0.66024,0.66024 0.66024,1.7423 0,2.4026 l -0.60159,0.60159 c -0.65948,0.66024 -1.7416,0.66024 -2.4018,0 l -5.5015005,-5.5 -5.5008,5.5008 c -0.66024,0.66024 -1.7423,0.66024 -2.4018,0 l -0.60159,-0.60159 c -0.66099,-0.66024 -0.66099,-1.7423 0,-2.4026 l 7.2093,-7.2085 c 0.35418,-0.35493 0.82943,-0.51285 1.2957,-0.48653 0.46548,-0.0271 0.94073,0.13084 1.2957005,0.48578 z" id="path25" style="fill:#b3b3b3" />
  <rect width="20" height="20" x="154.04878" y="-148.79395" transform="matrix(0.70710678,0.70710678,-0.70710678,0.70710678,0,0)" id="rect27" style="fill:#445566" />
  <path d="M 0.48066596,521.76101 7.639996,514.50367 c 0.65574,-0.66472 1.73777,-0.67207 2.40254,-0.0163 l 0.60567,0.59749 c 0.66471,0.65497 0.67207,1.73707 0.0163,2.40174 l -5.46247,5.53878 5.53807,5.46327 c 0.66471,0.65574 0.67207,1.73777 0.0163,2.40175 l -0.59749,0.60566 c -0.65573,0.66547 -1.73776,0.67282 -2.40254,0.0163 l -7.25735004,-7.16013 c -0.35733,-0.35176 -0.518473,-0.82592 -0.49532,-1.29236 -0.03026,-0.46528 0.12444,-0.9416 0.47696,-1.29898 z" id="up-arrow-1" style="fill:#b3b3b3" />
  <path d="M 0.48066596,521.76101 7.639996,514.50367 c 0.65574,-0.66472 1.73777,-0.67207 2.40254,-0.0163 l 0.60567,0.59749 c 0.66471,0.65497 0.67207,1.73707 0.0163,2.40174 l -5.46247,5.53878 5.53807,5.46327 c 0.66471,0.65574 0.67207,1.73777 0.0163,2.40175 l -0.59749,0.60566 c -0.65573,0.66547 -1.73776,0.67282 -2.40254,0.0163 l -7.25735004,-7.16013 c -0.35733,-0.35176 -0.518473,-0.82592 -0.49532,-1.29236 -0.03026,-0.46528 0.12444,-0.9416 0.47696,-1.29898 z" id="left-arrow" style="fill:#b3b3b3" />
  <g transform="translate(-8.9340199,-652.63936)" id="nome_sm">  <path   d="m 16.843739,670.63939 8.627746,7.24583 -16.5374651,0.18025 z"   id="home-6-4"   style="fill:#f5f5f5" />  <rect   width="3.0072742"   height="7.7048478"   x="18.946934"   y="676.93451"   id="home-3-9"   style="fill:#f5f5f5" />  <rect   width="3.9660027"   height="7.4050326"   x="12.305974"   y="677.13782"   id="home-2-4" class="grayFill" />  <rect   width="5.2205315"   height="2.7847216"   x="15.9928"   y="677.06445"   id="home-1-8" class="grayFill" />
  </g>
  <path d="m 6.1611994,232 c 0.39172,0 0.78373,-0.17738 1.09001,-0.53417 0.63308,-0.73878 0.65833,-1.96781 0.0566,-2.74506 l -3.53941,-4.56819 3.5358,-4.53652 c 0.60396,-0.77453 0.58176,-2.00356 -0.0497,-2.74507 -0.6317,-0.7415 -1.63293,-0.71393 -2.23689,0.0609 l -4.57891005,5.87382 c -0.583708,0.74899 -0.584818,1.92866 -0.004,2.68004 l 4.57864005,5.91059 c 0.31154,0.40075 0.72852,0.60366 1.14743,0.60366 z" id="right-arrow-1" style="fill:#bbbbbb" />
  <path d="m 110.76281,421.76101 -7.15933,-7.25734 c -0.65574,-0.66472 -1.73777,-0.67207 -2.40254,-0.0163 l -0.60567,0.59749 c -0.66471,0.65497 -0.67207,1.73707 -0.0163,2.40174 l 5.46247,5.53878 -5.53807,5.46327 c -0.66471,0.65574 -0.67207,1.73777 -0.0163,2.40175 l 0.59749,0.60566 c 0.65573,0.66547 1.73776,0.67282 2.40254,0.0163 l 7.25735,-7.16013 c 0.35733,-0.35176 0.51847,-0.82592 0.49532,-1.29236 0.0303,-0.46528 -0.12444,-0.9416 -0.47696,-1.29898 z" id="up-arrow-1-7" style="fill:#b3b3b3" />
  <path d="m 110.76281,421.76101 -7.15933,-7.25734 c -0.65574,-0.66472 -1.73777,-0.67207 -2.40254,-0.0163 l -0.60567,0.59749 c -0.66471,0.65497 -0.67207,1.73707 -0.0163,2.40174 l 5.46247,5.53878 -5.53807,5.46327 c -0.66471,0.65574 -0.67207,1.73777 -0.0163,2.40175 l 0.59749,0.60566 c 0.65573,0.66547 1.73776,0.67282 2.40254,0.0163 l 7.25735,-7.16013 c 0.35733,-0.35176 0.51847,-0.82592 0.49532,-1.29236 0.0303,-0.46528 -0.12444,-0.9416 -0.47696,-1.29898 z" id="left-arrow-4" style="fill:#b3b3b3" />
  <path d="m 0,130.41813 c 0,0.39172 0.17738,0.78373 0.53417,1.09001 0.73878,0.63308 1.96781,0.65833 2.74506,0.0566 l 4.56819,-3.53941 4.53652,3.5358 c 0.77453,0.60396 2.00356,0.58176 2.74507,-0.0497 0.7415,-0.6317 0.71393,-1.63293 -0.0609,-2.23689 l -5.87382,-4.57891 c -0.74899,-0.58371 -1.92866,-0.58482 -2.68004,-0.004 l -5.91059,4.57864 C 0.20291,129.58181 0,129.99879 0,130.4177 z" id="up-arrow-1-0" style="fill:#bbbbbb" />
  <path d="m 100,225.8388 c 0,-0.39172 0.17738,-0.78373 0.53417,-1.09001 0.73878,-0.63308 1.96781,-0.65833 2.74506,-0.0566 l 4.56819,3.53941 4.53652,-3.5358 c 0.77453,-0.60396 2.00356,-0.58176 2.74507,0.0497 0.7415,0.6317 0.71393,1.63293 -0.0609,2.23689 l -5.87382,4.57891 c -0.74899,0.58371 -1.92866,0.58482 -2.68004,0.004 l -5.91059,-4.57864 C 100.20291,226.67512 100,226.25814 100,225.83923 z" id="down-arrow-1-0-9" style="fill:#bbbbbb" />
  <g id="info-00" style="fill:#1a6b86">  <path   d="m 202.11198,320.79815 c -0.37733,0.007 -0.69066,0.13701 -0.93999,0.39 -0.24933,0.25301 -0.37866,0.587 -0.388,1.00199 0.009,0.42267 0.13867,0.76133 0.388,1.01598 0.24933,0.25468 0.56266,0.38534 0.93999,0.392 0.38499,-0.007 0.70298,-0.13732 0.95398,-0.392 0.251,-0.25465 0.381,-0.59331 0.39,-1.01598 -0.006,-0.40099 -0.13,-0.73098 -0.372,-0.98999 -0.242,-0.25899 -0.56599,-0.39298 -0.97198,-0.402 z m 1.00798,3.59996 c -1.10398,0.46133 -2.14397,0.72266 -3.11996,0.78399 l 0,0.63999 c 0.46266,-0.0213 0.75333,0.0413 0.87199,0.188 0.11867,0.14667 0.16933,0.50533 0.152,1.07598 l 0,3.66396 c 0.0163,0.57332 -0.0363,0.94265 -0.158,1.10798 -0.12166,0.16533 -0.41033,0.23867 -0.86599,0.22 l 0,0.67199 4.33595,0 0,-0.67199 c -0.41033,0.0183 -0.67366,-0.0543 -0.78999,-0.218 -0.11634,-0.16366 -0.16767,-0.52832 -0.154,-1.09398 l 0,-6.22392 z"   id="info-0" />
  </g>
  <path d="m 208.2502,423.62979 0.51573,1.97591 c 0.37114,1.42197 0.35869,2.9028 -0.0363,4.3196 l -0.0229,0.0825 c -0.40702,1.45989 -1.86986,2.48405 -3.54805,2.48405 h -1.01834 c -1.67819,0 -3.14103,-1.02416 -3.54805,-2.48405 l -0.023,-0.0825 c -0.395,-1.4168 -0.40745,-2.89763 -0.0363,-4.3196 l 0.51573,-1.97591 c 0.3097,-1.18657 1.48979,-2.02569 2.84881,-2.02569 h 1.50398 c 1.35901,0 2.5391,0.83912 2.84881,2.02569 z" id="mouse-0" style="fill:none;stroke:#165a71;stroke-width:0.9746694;stroke-linecap:round;stroke-linejoin:round;stroke-miterlimit:10;stroke-opacity:0.94117647" />  
  <line stroke-miterlimit="10" x1="204.6494" x2="204.6494" y1="422.09146" y2="426.66235" id="mouse-1" style="fill:none;stroke:#165a71;stroke-width:0.69400179;stroke-linecap:round;stroke-linejoin:round;stroke-miterlimit:10;stroke-opacity:0.94117647;stroke-dasharray:none" />
  <path d="m 204.65818,420.6968 -0.36113,-0.85379 c -0.11483,-0.27146 -0.0589,-0.5809 0.14466,-0.80094 l 0.21461,-0.23194 c 0.24393,-0.26365 0.27136,-0.64898 0.067,-0.94115 l -0.0167,-0.0239" id="mouse-2" style="fill:none;stroke:#165a71;stroke-width:0.9746694;stroke-linecap:round;stroke-linejoin:round;stroke-miterlimit:10;stroke-opacity:0.94117647" />
  <path d="m 200.35229,426.99148 c 8.34726,-0.12464 8.34726,-0.12464 8.34726,-0.12464" id="mouse-3" style="fill:none;stroke:#165a71;stroke-width:0.4873347;stroke-linecap:butt;stroke-linejoin:miter;stroke-miterlimit:4;stroke-opacity:1;stroke-dasharray:none" />
  
  <g id="video-icon">
  <rect width="9.9845276" height="13.891342" ry="1.9109764" x="200.0625" y="218.80432" id="video-0" style="fill:#165a71;fill-opacity:1;stroke:#bdb683;stroke-width:0.0126475;stroke-miterlimit:4;stroke-opacity:1;stroke-dasharray:none" />
  <rect width="4.9994593" height="5.000627" ry="1.0812167" x="202.5625" y="219.58958" id="video-1" style="fill:#ffffff;fill-opacity:1;stroke:#bdb683;stroke-width:0.010223;stroke-miterlimit:4;stroke-opacity:1;stroke-dasharray:none" />
  <rect width="4.9998178" height="5.0002413" ry="1.0811334" x="202.5625" y="226.18143" id="video-2" style="fill:#ffffff;fill-opacity:1;stroke:#bdb683;stroke-width:0.01022298;stroke-miterlimit:4;stroke-opacity:1;stroke-dasharray:none" />
  <rect width="1.5291016" height="1.763703" ry="0.38965532" x="200.45558" y="220.07953" id="video-3" class="whiteFill" />
  <rect width="1.5291016" height="1.763703" ry="0.38965532" x="200.45558" y="222.37645" id="video-4" class="whiteFill" />
  <rect width="1.5291016" height="1.763703" ry="0.38965532" x="200.45558" y="224.71439" id="video-5" class="whiteFill" />
  <rect width="1.5291016" height="1.763703" ry="0.38965532" x="200.45558" y="227.01129" id="video-6" class="whiteFill" />
  <rect width="1.2501482" height="1.763703" ry="0.38965532" x="200.45558" y="229.2672" id="video-7" class="whiteFill" />
  <rect width="1.5291016" height="1.763703" ry="0.38965532" x="200.45558" y="229.2672" id="video-8" class="whiteFill" />
  <rect width="1.5291016" height="1.763703" ry="0.38965532" x="208.10312" y="220.07953" id="video-9" class="whiteFill" />
  <rect width="1.5291016" height="1.763703" ry="0.38965532" x="208.10312" y="222.37645" id="video-10" class="whiteFill" />
  <rect width="1.5291016" height="1.763703" ry="0.38965532" x="208.10312" y="224.71439" id="video-11" class="whiteFill" />
  <rect width="1.5291016" height="1.763703" ry="0.38965532" x="208.10312" y="227.01129" id="video-12" class="whiteFill" />
  <rect width="1.2501482" height="1.763703" ry="0.38965532" x="208.38206" y="229.2672" id="video-13" class="whiteFill" />
  <rect width="1.5291016" height="1.763703" ry="0.38965532" x="208.10312" y="229.2672" id="video-14" class="whiteFill" />
  </g>
  <path id="twit-icon" transform="translate(0,290)" d="m 310.26137,213.36859 c -1.1656,0.51707 -2.4185,0.86638 -3.73318,1.02352 1.34193,-0.80443 2.37273,-2.07824 2.85795,-3.59616 -1.25607,0.74502 -2.6471,1.28585 -4.1278,1.57733 -1.18556,-1.26335 -2.87489,-2.05257 -4.7445,-2.05257 -3.58966,0 -6.5002,2.91023 -6.5002,6.49989 0,0.50946 0.0575,1.00561 0.16823,1.48133 -5.40223,-0.27104 -10.19173,-2.8589 -13.39771,-6.79153 -0.55953,0.95999 -0.88015,2.0765 -0.88015,3.26777 0,2.25518 1.14755,4.2447 2.89169,5.41031 -1.0655,-0.0338 -2.06778,-0.32617 -2.94413,-0.81298 -6.3e-4,0.0271 -6.3e-4,0.0543 -6.3e-4,0.0817 0,3.14927 2.24061,5.77642 5.2142,6.37363 -0.54542,0.14859 -1.11967,0.22796 -1.71246,0.22796 -0.41884,0 -0.82597,-0.0409 -1.22296,-0.11659 0.82725,2.58231 3.22769,4.46173 6.07218,4.51401 -2.22462,1.74351 -5.02727,2.78254 -8.07278,2.78254 -0.52467,0 -1.04205,-0.0308 -1.55056,-0.0909 2.87664,1.84442 6.29331,2.92069 9.96408,2.92069 11.95599,0 18.49422,-9.90469 18.49422,-18.49437 0,-0.28182 -0.006,-0.56206 -0.0188,-0.84103 1.27002,-0.91626 2.37194,-2.06112 3.24338,-3.36456 z" style="fill:#3aaae1" />
  <g id="hamburger" transform="translate(200,100)"><path class="line" d="M 2,2 23,2" /><path class="line" d="M 2,8 23,8" /><path class="line" d="m 2,14 21,0" />  </g>    
</svg>
